<svg width="640" height="640" viewBox="0 0 640 640" xmlns="http://www.w3.org/2000/svg">
<rect x="0" y="0" width="640" height="640" opacity="1" fill="#FFFFFF" stroke="none"/>
<line opacity="0.1" stroke="#000000" stroke-width="1" x1="40" y1="619" x2="40" y2="0"/>
<line opacity="0.1" stroke="#000000" stroke-width="1" x1="53" y1="619" x2="53" y2="0"/>
<line opacity="0.1" stroke="#000000" stroke-width="1" x1="67" y1="619" x2="67" y2="0"/>
<line opacity="0.1" stroke="#000000" stroke-width="1" x1="81" y1="619" x2="81" y2="0"/>
<line opacity="0.1" stroke="#000000" stroke-width="1" x1="95" y1="619" x2="95" y2="0"/>
<line opacity="0.1" stroke="#000000" stroke-width="1" x1="109" y1="619" x2="109" y2="0"/>
<line opacity="0.1" stroke="#000000" stroke-width="1" x1="123" y1="619" x2="123" y2="0"/>
<line opacity="0.1" stroke="#000000" stroke-width="1" x1="137" y1="619" x2="137" y2="0"/>
<line opacity="0.1" stroke="#000000" stroke-width="1" x1="150" y1="619" x2="150" y2="0"/>
<line opacity="0.1" stroke="#000000" stroke-width="1" x1="164" y1="619" x2="164" y2="0"/>
<line opacity="0.1" stroke="#000000" stroke-width="1" x1="178" y1="619" x2="178" y2="0"/>
<line opacity="0.1" stroke="#000000" stroke-width="1" x1="192" y1="619" x2="192" y2="0"/>
<line opacity="0.1" stroke="#000000" stroke-width="1" x1="206" y1="619" x2="206" y2="0"/>
<line opacity="0.1" stroke="#000000" stroke-width="1" x1="220" y1="619" x2="220" y2="0"/>
<line opacity="0.1" stroke="#000000" stroke-width="1" x1="234" y1="619" x2="234" y2="0"/>
<line opacity="0.1" stroke="#000000" stroke-width="1" x1="247" y1="619" x2="247" y2="0"/>
<line opacity="0.1" stroke="#000000" stroke-width="1" x1="261" y1="619" x2="261" y2="0"/>
<line opacity="0.1" stroke="#000000" stroke-width="1" x1="275" y1="619" x2="275" y2="0"/>
<line opacity="0.1" stroke="#000000" stroke-width="1" x1="289" y1="619" x2="289" y2="0"/>
<line opacity="0.1" stroke="#000000" stroke-width="1" x1="303" y1="619" x2="303" y2="0"/>
<line opacity="0.1" stroke="#000000" stroke-width="1" x1="317" y1="619" x2="317" y2="0"/>
<line opacity="0.1" stroke="#000000" stroke-width="1" x1="331" y1="619" x2="331" y2="0"/>
<line opacity="0.1" stroke="#000000" stroke-width="1" x1="345" y1="619" x2="345" y2="0"/>
<line opacity="0.1" stroke="#000000" stroke-width="1" x1="358" y1="619" x2="358" y2="0"/>
<line opacity="0.1" stroke="#000000" stroke-width="1" x1="372" y1="619" x2="372" y2="0"/>
<line opacity="0.1" stroke="#000000" stroke-width="1" x1="386" y1="619" x2="386" y2="0"/>
<line opacity="0.1" stroke="#000000" stroke-width="1" x1="400" y1="619" x2="400" y2="0"/>
<line opacity="0.1" stroke="#000000" stroke-width="1" x1="414" y1="619" x2="414" y2="0"/>
<line opacity="0.1" stroke="#000000" stroke-width="1" x1="428" y1="619" x2="428" y2="0"/>
<line opacity="0.1" stroke="#000000" stroke-width="1" x1="442" y1="619" x2="442" y2="0"/>
<line opacity="0.1" stroke="#000000" stroke-width="1" x1="455" y1="619" x2="455" y2="0"/>
<line opacity="0.1" stroke="#000000" stroke-width="1" x1="469" y1="619" x2="469" y2="0"/>
<line opacity="0.1" stroke="#000000" stroke-width="1" x1="483" y1="619" x2="483" y2="0"/>
<line opacity="0.1" stroke="#000000" stroke-width="1" x1="497" y1="619" x2="497" y2="0"/>
<line opacity="0.1" stroke="#000000" stroke-width="1" x1="511" y1="619" x2="511" y2="0"/>
<line opacity="0.1" stroke="#000000" stroke-width="1" x1="525" y1="619" x2="525" y2="0"/>
<line opacity="0.1" stroke="#000000" stroke-width="1" x1="539" y1="619" x2="539" y2="0"/>
<line opacity="0.1" stroke="#000000" stroke-width="1" x1="553" y1="619" x2="553" y2="0"/>
<line opacity="0.1" stroke="#000000" stroke-width="1" x1="566" y1="619" x2="566" y2="0"/>
<line opacity="0.1" stroke="#000000" stroke-width="1" x1="580" y1="619" x2="580" y2="0"/>
<line opacity="0.1" stroke="#000000" stroke-width="1" x1="594" y1="619" x2="594" y2="0"/>
<line opacity="0.1" stroke="#000000" stroke-width="1" x1="608" y1="619" x2="608" y2="0"/>
<line opacity="0.1" stroke="#000000" stroke-width="1" x1="622" y1="619" x2="622" y2="0"/>
<line opacity="0.1" stroke="#000000" stroke-width="1" x1="636" y1="619" x2="636" y2="0"/>
<line opacity="0.1" stroke="#000000" stroke-width="1" x1="40" y1="619" x2="639" y2="619"/>
<line opacity="0.1" stroke="#000000" stroke-width="1" x1="40" y1="608" x2="639" y2="608"/>
<line opacity="0.1" stroke="#000000" stroke-width="1" x1="40" y1="597" x2="639" y2="597"/>
<line opacity="0.1" stroke="#000000" stroke-width="1" x1="40" y1="585" x2="639" y2="585"/>
<line opacity="0.1" stroke="#000000" stroke-width="1" x1="40" y1="574" x2="639" y2="574"/>
<line opacity="0.1" stroke="#000000" stroke-width="1" x1="40" y1="562" x2="639" y2="562"/>
<line opacity="0.1" stroke="#000000" stroke-width="1" x1="40" y1="551" x2="639" y2="551"/>
<line opacity="0.1" stroke="#000000" stroke-width="1" x1="40" y1="539" x2="639" y2="539"/>
<line opacity="0.1" stroke="#000000" stroke-width="1" x1="40" y1="528" x2="639" y2="528"/>
<line opacity="0.1" stroke="#000000" stroke-width="1" x1="40" y1="516" x2="639" y2="516"/>
<line opacity="0.1" stroke="#000000" stroke-width="1" x1="40" y1="505" x2="639" y2="505"/>
<line opacity="0.1" stroke="#000000" stroke-width="1" x1="40" y1="493" x2="639" y2="493"/>
<line opacity="0.1" stroke="#000000" stroke-width="1" x1="40" y1="482" x2="639" y2="482"/>
<line opacity="0.1" stroke="#000000" stroke-width="1" x1="40" y1="470" x2="639" y2="470"/>
<line opacity="0.1" stroke="#000000" stroke-width="1" x1="40" y1="459" x2="639" y2="459"/>
<line opacity="0.1" stroke="#000000" stroke-width="1" x1="40" y1="448" x2="639" y2="448"/>
<line opacity="0.1" stroke="#000000" stroke-width="1" x1="40" y1="436" x2="639" y2="436"/>
<line opacity="0.1" stroke="#000000" stroke-width="1" x1="40" y1="425" x2="639" y2="425"/>
<line opacity="0.1" stroke="#000000" stroke-width="1" x1="40" y1="413" x2="639" y2="413"/>
<line opacity="0.1" stroke="#000000" stroke-width="1" x1="40" y1="402" x2="639" y2="402"/>
<line opacity="0.1" stroke="#000000" stroke-width="1" x1="40" y1="390" x2="639" y2="390"/>
<line opacity="0.1" stroke="#000000" stroke-width="1" x1="40" y1="379" x2="639" y2="379"/>
<line opacity="0.1" stroke="#000000" stroke-width="1" x1="40" y1="367" x2="639" y2="367"/>
<line opacity="0.1" stroke="#000000" stroke-width="1" x1="40" y1="356" x2="639" y2="356"/>
<line opacity="0.1" stroke="#000000" stroke-width="1" x1="40" y1="344" x2="639" y2="344"/>
<line opacity="0.1" stroke="#000000" stroke-width="1" x1="40" y1="333" x2="639" y2="333"/>
<line opacity="0.1" stroke="#000000" stroke-width="1" x1="40" y1="321" x2="639" y2="321"/>
<line opacity="0.1" stroke="#000000" stroke-width="1" x1="40" y1="310" x2="639" y2="310"/>
<line opacity="0.1" stroke="#000000" stroke-width="1" x1="40" y1="299" x2="639" y2="299"/>
<line opacity="0.1" stroke="#000000" stroke-width="1" x1="40" y1="287" x2="639" y2="287"/>
<line opacity="0.1" stroke="#000000" stroke-width="1" x1="40" y1="276" x2="639" y2="276"/>
<line opacity="0.1" stroke="#000000" stroke-width="1" x1="40" y1="264" x2="639" y2="264"/>
<line opacity="0.1" stroke="#000000" stroke-width="1" x1="40" y1="253" x2="639" y2="253"/>
<line opacity="0.1" stroke="#000000" stroke-width="1" x1="40" y1="241" x2="639" y2="241"/>
<line opacity="0.1" stroke="#000000" stroke-width="1" x1="40" y1="230" x2="639" y2="230"/>
<line opacity="0.1" stroke="#000000" stroke-width="1" x1="40" y1="218" x2="639" y2="218"/>
<line opacity="0.1" stroke="#000000" stroke-width="1" x1="40" y1="207" x2="639" y2="207"/>
<line opacity="0.1" stroke="#000000" stroke-width="1" x1="40" y1="195" x2="639" y2="195"/>
<line opacity="0.1" stroke="#000000" stroke-width="1" x1="40" y1="184" x2="639" y2="184"/>
<line opacity="0.1" stroke="#000000" stroke-width="1" x1="40" y1="172" x2="639" y2="172"/>
<line opacity="0.1" stroke="#000000" stroke-width="1" x1="40" y1="161" x2="639" y2="161"/>
<line opacity="0.1" stroke="#000000" stroke-width="1" x1="40" y1="150" x2="639" y2="150"/>
<line opacity="0.1" stroke="#000000" stroke-width="1" x1="40" y1="138" x2="639" y2="138"/>
<line opacity="0.1" stroke="#000000" stroke-width="1" x1="40" y1="127" x2="639" y2="127"/>
<line opacity="0.1" stroke="#000000" stroke-width="1" x1="40" y1="115" x2="639" y2="115"/>
<line opacity="0.1" stroke="#000000" stroke-width="1" x1="40" y1="104" x2="639" y2="104"/>
<line opacity="0.1" stroke="#000000" stroke-width="1" x1="40" y1="92" x2="639" y2="92"/>
<line opacity="0.1" stroke="#000000" stroke-width="1" x1="40" y1="81" x2="639" y2="81"/>
<line opacity="0.1" stroke="#000000" stroke-width="1" x1="40" y1="69" x2="639" y2="69"/>
<line opacity="0.1" stroke="#000000" stroke-width="1" x1="40" y1="58" x2="639" y2="58"/>
<line opacity="0.1" stroke="#000000" stroke-width="1" x1="40" y1="46" x2="639" y2="46"/>
<line opacity="0.1" stroke="#000000" stroke-width="1" x1="40" y1="35" x2="639" y2="35"/>
<line opacity="0.1" stroke="#000000" stroke-width="1" x1="40" y1="23" x2="639" y2="23"/>
<line opacity="0.1" stroke="#000000" stroke-width="1" x1="40" y1="12" x2="639" y2="12"/>
<line opacity="0.1" stroke="#000000" stroke-width="1" x1="40" y1="0" x2="639" y2="0"/>
<text x="0" y="310" dy="0.76em" text-anchor="middle" font-family="Helvetica" font-size="11.290322580645162" opacity="1" fill="#000000" transform="rotate(270, 0, 310)">
mg/dL
</text>
<line opacity="0.2" stroke="#000000" stroke-width="1" x1="40" y1="619" x2="40" y2="0"/>
<line opacity="0.2" stroke="#000000" stroke-width="1" x1="178" y1="619" x2="178" y2="0"/>
<line opacity="0.2" stroke="#000000" stroke-width="1" x1="317" y1="619" x2="317" y2="0"/>
<line opacity="0.2" stroke="#000000" stroke-width="1" x1="455" y1="619" x2="455" y2="0"/>
<line opacity="0.2" stroke="#000000" stroke-width="1" x1="594" y1="619" x2="594" y2="0"/>
<line opacity="0.2" stroke="#000000" stroke-width="1" x1="40" y1="597" x2="639" y2="597"/>
<line opacity="0.2" stroke="#000000" stroke-width="1" x1="40" y1="482" x2="639" y2="482"/>
<line opacity="0.2" stroke="#000000" stroke-width="1" x1="40" y1="367" x2="639" y2="367"/>
<line opacity="0.2" stroke="#000000" stroke-width="1" x1="40" y1="253" x2="639" y2="253"/>
<line opacity="0.2" stroke="#000000" stroke-width="1" x1="40" y1="138" x2="639" y2="138"/>
<line opacity="0.2" stroke="#000000" stroke-width="1" x1="40" y1="23" x2="639" y2="23"/>
<polyline fill="none" opacity="1" stroke="#000000" stroke-width="1" points="39,0 39,619 "/>
<text x="30" y="597" dy="0.5ex" text-anchor="end" font-family="Helvetica" font-size="11.290322580645162" opacity="1" fill="#000000">
50
</text>
<polyline fill="none" opacity="1" stroke="#000000" stroke-width="1" points="34,597 39,597 "/>
<text x="30" y="482" dy="0.5ex" text-anchor="end" font-family="Helvetica" font-size="11.290322580645162" opacity="1" fill="#000000">
100
</text>
<polyline fill="none" opacity="1" stroke="#000000" stroke-width="1" points="34,482 39,482 "/>
<text x="30" y="367" dy="0.5ex" text-anchor="end" font-family="Helvetica" font-size="11.290322580645162" opacity="1" fill="#000000">
150
</text>
<polyline fill="none" opacity="1" stroke="#000000" stroke-width="1" points="34,367 39,367 "/>
<text x="30" y="253" dy="0.5ex" text-anchor="end" font-family="Helvetica" font-size="11.290322580645162" opacity="1" fill="#000000">
200
</text>
<polyline fill="none" opacity="1" stroke="#000000" stroke-width="1" points="34,253 39,253 "/>
<text x="30" y="138" dy="0.5ex" text-anchor="end" font-family="Helvetica" font-size="11.290322580645162" opacity="1" fill="#000000">
250
</text>
<polyline fill="none" opacity="1" stroke="#000000" stroke-width="1" points="34,138 39,138 "/>
<text x="30" y="23" dy="0.5ex" text-anchor="end" font-family="Helvetica" font-size="11.290322580645162" opacity="1" fill="#000000">
300
</text>
<polyline fill="none" opacity="1" stroke="#000000" stroke-width="1" points="34,23 39,23 "/>
<polyline fill="none" opacity="1" stroke="#000000" stroke-width="1" points="40,620 639,620 "/>
<text x="40" y="630" dy="0.76em" text-anchor="middle" font-family="Helvetica" font-size="11.290322580645162" opacity="1" fill="#000000">
00:00
</text>
<polyline fill="none" opacity="1" stroke="#000000" stroke-width="1" points="40,620 40,625 "/>
<text x="178" y="630" dy="0.76em" text-anchor="middle" font-family="Helvetica" font-size="11.290322580645162" opacity="1" fill="#000000">
05:33
</text>
<polyline fill="none" opacity="1" stroke="#000000" stroke-width="1" points="178,620 178,625 "/>
<text x="317" y="630" dy="0.76em" text-anchor="middle" font-family="Helvetica" font-size="11.290322580645162" opacity="1" fill="#000000">
11:06
</text>
<polyline fill="none" opacity="1" stroke="#000000" stroke-width="1" points="317,620 317,625 "/>
<text x="455" y="630" dy="0.76em" text-anchor="middle" font-family="Helvetica" font-size="11.290322580645162" opacity="1" fill="#000000">
16:40
</text>
<polyline fill="none" opacity="1" stroke="#000000" stroke-width="1" points="455,620 455,625 "/>
<text x="594" y="630" dy="0.76em" text-anchor="middle" font-family="Helvetica" font-size="11.290322580645162" opacity="1" fill="#000000">
22:13
</text>
<polyline fill="none" opacity="1" stroke="#000000" stroke-width="1" points="594,620 594,625 "/>
<polyline fill="none" opacity="1" stroke="#FFB74D" stroke-width="1" points="40,299 639,299 "/>
<polyline fill="none" opacity="1" stroke="#E57373" stroke-width="1" points="40,528 639,528 "/>
<circle cx="121" cy="608" r="4" opacity="1" fill="#E57373" stroke="none" stroke-width="1"/>
<circle cx="453" cy="161" r="4" opacity="1" fill="#FFB74D" stroke="none" stroke-width="1"/>
<circle cx="50" cy="503" r="4" opacity="1" fill="#4DD0E1" stroke="none" stroke-width="1"/>
<circle cx="570" cy="526" r="4" opacity="1" fill="#4DD0E1" stroke="none" stroke-width="1"/>
<circle cx="133" cy="599" r="4" opacity="1" fill="#E57373" stroke="none" stroke-width="1"/>
<circle cx="354" cy="379" r="4" opacity="1" fill="#4DD0E1" stroke="none" stroke-width="1"/>
<circle cx="223" cy="340" r="4" opacity="1" fill="#4DD0E1" stroke="none" stroke-width="1"/>
<circle cx="42" cy="432" r="4" opacity="1" fill="#4DD0E1" stroke="none" stroke-width="1"/>
<circle cx="587" cy="519" r="4" opacity="1" fill="#4DD0E1" stroke="none" stroke-width="1"/>
<circle cx="299" cy="452" r="4" opacity="1" fill="#4DD0E1" stroke="none" stroke-width="1"/>
<circle cx="447" cy="188" r="4" opacity="1" fill="#FFB74D" stroke="none" stroke-width="1"/>
<circle cx="491" cy="457" r="4" opacity="1" fill="#4DD0E1" stroke="none" stroke-width="1"/>
<circle cx="266" cy="406" r="4" opacity="1" fill="#4DD0E1" stroke="none" stroke-width="1"/>
<circle cx="541" cy="477" r="4" opacity="1" fill="#4DD0E1" stroke="none" stroke-width="1"/>
<circle cx="202" cy="335" r="4" opacity="1" fill="#4DD0E1" stroke="none" stroke-width="1"/>
<circle cx="437" cy="292" r="4" opacity="1" fill="#FFB74D" stroke="none" stroke-width="1"/>
<circle cx="171" cy="560" r="4" opacity="1" fill="#E57373" stroke="none" stroke-width="1"/>
<circle cx="385" cy="324" r="4" opacity="1" fill="#4DD0E1" stroke="none" stroke-width="1"/>
<circle cx="414" cy="321" r="4" opacity="1" fill="#4DD0E1" stroke="none" stroke-width="1"/>
<circle cx="116" cy="601" r="4" opacity="1" fill="#E57373" stroke="none" stroke-width="1"/>
<circle cx="183" cy="415" r="4" opacity="1" fill="#4DD0E1" stroke="none" stroke-width="1"/>
<circle cx="91" cy="620" r="4" opacity="1" fill="#E57373" stroke="none" stroke-width="1"/>
<circle cx="568" cy="512" r="4" opacity="1" fill="#4DD0E1" stroke="none" stroke-width="1"/>
<circle cx="389" cy="312" r="4" opacity="1" fill="#4DD0E1" stroke="none" stroke-width="1"/>
<circle cx="102" cy="606" r="4" opacity="1" fill="#E57373" stroke="none" stroke-width="1"/>
<circle cx="54" cy="521" r="4" opacity="1" fill="#4DD0E1" stroke="none" stroke-width="1"/>
<circle cx="75" cy="603" r="4" opacity="1" fill="#E57373" stroke="none" stroke-width="1"/>
<circle cx="62" cy="562" r="4" opacity="1" fill="#E57373" stroke="none" stroke-width="1"/>
<circle cx="310" cy="468" r="4" opacity="1" fill="#4DD0E1" stroke="none" stroke-width="1"/>
<circle cx="433" cy="308" r="4" opacity="1" fill="#4DD0E1" stroke="none" stroke-width="1"/>
<circle cx="216" cy="342" r="4" opacity="1" fill="#4DD0E1" stroke="none" stroke-width="1"/>
<circle cx="537" cy="477" r="4" opacity="1" fill="#4DD0E1" stroke="none" stroke-width="1"/>
<circle cx="489" cy="425" r="4" opacity="1" fill="#4DD0E1" stroke="none" stroke-width="1"/>
<circle cx="455" cy="170" r="4" opacity="1" fill="#FFB74D" stroke="none" stroke-width="1"/>
<circle cx="81" cy="608" r="4" opacity="1" fill="#E57373" stroke="none" stroke-width="1"/>
<circle cx="73" cy="594" r="4" opacity="1" fill="#E57373" stroke="none" stroke-width="1"/>
<circle cx="287" cy="489" r="4" opacity="1" fill="#4DD0E1" stroke="none" stroke-width="1"/>
<circle cx="422" cy="328" r="4" opacity="1" fill="#4DD0E1" stroke="none" stroke-width="1"/>
<circle cx="179" cy="457" r="4" opacity="1" fill="#4DD0E1" stroke="none" stroke-width="1"/>
<circle cx="304" cy="459" r="4" opacity="1" fill="#4DD0E1" stroke="none" stroke-width="1"/>
<circle cx="245" cy="349" r="4" opacity="1" fill="#4DD0E1" stroke="none" stroke-width="1"/>
<circle cx="156" cy="585" r="4" opacity="1" fill="#E57373" stroke="none" stroke-width="1"/>
<circle cx="493" cy="480" r="4" opacity="1" fill="#4DD0E1" stroke="none" stroke-width="1"/>
<circle cx="204" cy="338" r="4" opacity="1" fill="#4DD0E1" stroke="none" stroke-width="1"/>
<circle cx="607" cy="443" r="4" opacity="1" fill="#4DD0E1" stroke="none" stroke-width="1"/>
<circle cx="318" cy="473" r="4" opacity="1" fill="#4DD0E1" stroke="none" stroke-width="1"/>
<circle cx="329" cy="452" r="4" opacity="1" fill="#4DD0E1" stroke="none" stroke-width="1"/>
<circle cx="510" cy="459" r="4" opacity="1" fill="#4DD0E1" stroke="none" stroke-width="1"/>
<circle cx="48" cy="489" r="4" opacity="1" fill="#4DD0E1" stroke="none" stroke-width="1"/>
<circle cx="85" cy="620" r="4" opacity="1" fill="#E57373" stroke="none" stroke-width="1"/>
<circle cx="351" cy="395" r="4" opacity="1" fill="#4DD0E1" stroke="none" stroke-width="1"/>
<circle cx="166" cy="574" r="4" opacity="1" fill="#E57373" stroke="none" stroke-width="1"/>
<circle cx="225" cy="333" r="4" opacity="1" fill="#4DD0E1" stroke="none" stroke-width="1"/>
<circle cx="609" cy="436" r="4" opacity="1" fill="#4DD0E1" stroke="none" stroke-width="1"/>
<circle cx="543" cy="475" r="4" opacity="1" fill="#4DD0E1" stroke="none" stroke-width="1"/>
<circle cx="520" cy="454" r="4" opacity="1" fill="#4DD0E1" stroke="none" stroke-width="1"/>
<circle cx="603" cy="457" r="4" opacity="1" fill="#4DD0E1" stroke="none" stroke-width="1"/>
<circle cx="125" cy="606" r="4" opacity="1" fill="#E57373" stroke="none" stroke-width="1"/>
<circle cx="268" cy="409" r="4" opacity="1" fill="#4DD0E1" stroke="none" stroke-width="1"/>
<circle cx="114" cy="606" r="4" opacity="1" fill="#E57373" stroke="none" stroke-width="1"/>
<circle cx="397" cy="294" r="4" opacity="1" fill="#FFB74D" stroke="none" stroke-width="1"/>
<circle cx="162" cy="571" r="4" opacity="1" fill="#E57373" stroke="none" stroke-width="1"/>
<circle cx="622" cy="420" r="4" opacity="1" fill="#4DD0E1" stroke="none" stroke-width="1"/>
<circle cx="383" cy="351" r="4" opacity="1" fill="#4DD0E1" stroke="none" stroke-width="1"/>
<circle cx="611" cy="425" r="4" opacity="1" fill="#4DD0E1" stroke="none" stroke-width="1"/>
<circle cx="468" cy="225" r="4" opacity="1" fill="#FFB74D" stroke="none" stroke-width="1"/>
<circle cx="60" cy="551" r="4" opacity="1" fill="#E57373" stroke="none" stroke-width="1"/>
<circle cx="499" cy="539" r="4" opacity="1" fill="#E57373" stroke="none" stroke-width="1"/>
<circle cx="258" cy="381" r="4" opacity="1" fill="#4DD0E1" stroke="none" stroke-width="1"/>
<circle cx="458" cy="182" r="4" opacity="1" fill="#FFB74D" stroke="none" stroke-width="1"/>
<circle cx="139" cy="587" r="4" opacity="1" fill="#E57373" stroke="none" stroke-width="1"/>
<circle cx="418" cy="328" r="4" opacity="1" fill="#4DD0E1" stroke="none" stroke-width="1"/>
<circle cx="374" cy="383" r="4" opacity="1" fill="#4DD0E1" stroke="none" stroke-width="1"/>
<circle cx="518" cy="443" r="4" opacity="1" fill="#4DD0E1" stroke="none" stroke-width="1"/>
<circle cx="272" cy="425" r="4" opacity="1" fill="#4DD0E1" stroke="none" stroke-width="1"/>
<circle cx="539" cy="480" r="4" opacity="1" fill="#4DD0E1" stroke="none" stroke-width="1"/>
<circle cx="366" cy="388" r="4" opacity="1" fill="#4DD0E1" stroke="none" stroke-width="1"/>
<circle cx="58" cy="537" r="4" opacity="1" fill="#E57373" stroke="none" stroke-width="1"/>
<circle cx="595" cy="468" r="4" opacity="1" fill="#4DD0E1" stroke="none" stroke-width="1"/>
<circle cx="135" cy="597" r="4" opacity="1" fill="#E57373" stroke="none" stroke-width="1"/>
<circle cx="441" cy="262" r="4" opacity="1" fill="#FFB74D" stroke="none" stroke-width="1"/>
<circle cx="528" cy="489" r="4" opacity="1" fill="#4DD0E1" stroke="none" stroke-width="1"/>
<circle cx="283" cy="470" r="4" opacity="1" fill="#4DD0E1" stroke="none" stroke-width="1"/>
<circle cx="195" cy="331" r="4" opacity="1" fill="#4DD0E1" stroke="none" stroke-width="1"/>
<circle cx="143" cy="587" r="4" opacity="1" fill="#E57373" stroke="none" stroke-width="1"/>
<circle cx="308" cy="464" r="4" opacity="1" fill="#4DD0E1" stroke="none" stroke-width="1"/>
<circle cx="460" cy="195" r="4" opacity="1" fill="#FFB74D" stroke="none" stroke-width="1"/>
<circle cx="100" cy="619" r="4" opacity="1" fill="#E57373" stroke="none" stroke-width="1"/>
<circle cx="302" cy="457" r="4" opacity="1" fill="#4DD0E1" stroke="none" stroke-width="1"/>
<circle cx="164" cy="574" r="4" opacity="1" fill="#E57373" stroke="none" stroke-width="1"/>
<circle cx="314" cy="491" r="4" opacity="1" fill="#4DD0E1" stroke="none" stroke-width="1"/>
<circle cx="40" cy="413" r="4" opacity="1" fill="#4DD0E1" stroke="none" stroke-width="1"/>
<circle cx="229" cy="354" r="4" opacity="1" fill="#4DD0E1" stroke="none" stroke-width="1"/>
<circle cx="572" cy="519" r="4" opacity="1" fill="#4DD0E1" stroke="none" stroke-width="1"/>
<circle cx="212" cy="338" r="4" opacity="1" fill="#4DD0E1" stroke="none" stroke-width="1"/>
<circle cx="480" cy="360" r="4" opacity="1" fill="#4DD0E1" stroke="none" stroke-width="1"/>
<circle cx="578" cy="512" r="4" opacity="1" fill="#4DD0E1" stroke="none" stroke-width="1"/>
<circle cx="487" cy="406" r="4" opacity="1" fill="#4DD0E1" stroke="none" stroke-width="1"/>
<circle cx="466" cy="214" r="4" opacity="1" fill="#FFB74D" stroke="none" stroke-width="1"/>
<circle cx="591" cy="484" r="4" opacity="1" fill="#4DD0E1" stroke="none" stroke-width="1"/>
<circle cx="56" cy="528" r="4" opacity="1" fill="#E57373" stroke="none" stroke-width="1"/>
<circle cx="416" cy="324" r="4" opacity="1" fill="#4DD0E1" stroke="none" stroke-width="1"/>
<circle cx="559" cy="505" r="4" opacity="1" fill="#4DD0E1" stroke="none" stroke-width="1"/>
<circle cx="449" cy="179" r="4" opacity="1" fill="#FFB74D" stroke="none" stroke-width="1"/>
<circle cx="410" cy="310" r="4" opacity="1" fill="#4DD0E1" stroke="none" stroke-width="1"/>
<circle cx="341" cy="434" r="4" opacity="1" fill="#4DD0E1" stroke="none" stroke-width="1"/>
<circle cx="110" cy="603" r="4" opacity="1" fill="#E57373" stroke="none" stroke-width="1"/>
<circle cx="291" cy="470" r="4" opacity="1" fill="#4DD0E1" stroke="none" stroke-width="1"/>
<circle cx="566" cy="500" r="4" opacity="1" fill="#4DD0E1" stroke="none" stroke-width="1"/>
<circle cx="141" cy="590" r="4" opacity="1" fill="#E57373" stroke="none" stroke-width="1"/>
<circle cx="270" cy="418" r="4" opacity="1" fill="#4DD0E1" stroke="none" stroke-width="1"/>
<circle cx="289" cy="484" r="4" opacity="1" fill="#4DD0E1" stroke="none" stroke-width="1"/>
<circle cx="152" cy="587" r="4" opacity="1" fill="#E57373" stroke="none" stroke-width="1"/>
<circle cx="364" cy="386" r="4" opacity="1" fill="#4DD0E1" stroke="none" stroke-width="1"/>
<circle cx="87" cy="620" r="4" opacity="1" fill="#E57373" stroke="none" stroke-width="1"/>
<circle cx="339" cy="427" r="4" opacity="1" fill="#4DD0E1" stroke="none" stroke-width="1"/>
<circle cx="200" cy="335" r="4" opacity="1" fill="#4DD0E1" stroke="none" stroke-width="1"/>
<circle cx="322" cy="468" r="4" opacity="1" fill="#4DD0E1" stroke="none" stroke-width="1"/>
<circle cx="206" cy="340" r="4" opacity="1" fill="#4DD0E1" stroke="none" stroke-width="1"/>
<circle cx="632" cy="441" r="4" opacity="1" fill="#4DD0E1" stroke="none" stroke-width="1"/>
<circle cx="601" cy="448" r="4" opacity="1" fill="#4DD0E1" stroke="none" stroke-width="1"/>
<circle cx="260" cy="390" r="4" opacity="1" fill="#4DD0E1" stroke="none" stroke-width="1"/>
<circle cx="158" cy="574" r="4" opacity="1" fill="#E57373" stroke="none" stroke-width="1"/>
<circle cx="589" cy="505" r="4" opacity="1" fill="#4DD0E1" stroke="none" stroke-width="1"/>
<circle cx="406" cy="287" r="4" opacity="1" fill="#FFB74D" stroke="none" stroke-width="1"/>
<circle cx="175" cy="523" r="4" opacity="1" fill="#4DD0E1" stroke="none" stroke-width="1"/>
<circle cx="69" cy="576" r="4" opacity="1" fill="#E57373" stroke="none" stroke-width="1"/>
<circle cx="295" cy="454" r="4" opacity="1" fill="#4DD0E1" stroke="none" stroke-width="1"/>
<circle cx="574" cy="512" r="4" opacity="1" fill="#4DD0E1" stroke="none" stroke-width="1"/>
<circle cx="562" cy="507" r="4" opacity="1" fill="#4DD0E1" stroke="none" stroke-width="1"/>
<circle cx="247" cy="354" r="4" opacity="1" fill="#4DD0E1" stroke="none" stroke-width="1"/>
<circle cx="181" cy="429" r="4" opacity="1" fill="#4DD0E1" stroke="none" stroke-width="1"/>
<circle cx="462" cy="202" r="4" opacity="1" fill="#FFB74D" stroke="none" stroke-width="1"/>
<circle cx="231" cy="411" r="4" opacity="1" fill="#4DD0E1" stroke="none" stroke-width="1"/>
<circle cx="464" cy="216" r="4" opacity="1" fill="#FFB74D" stroke="none" stroke-width="1"/>
<circle cx="391" cy="312" r="4" opacity="1" fill="#4DD0E1" stroke="none" stroke-width="1"/>
<circle cx="243" cy="354" r="4" opacity="1" fill="#4DD0E1" stroke="none" stroke-width="1"/>
<circle cx="530" cy="487" r="4" opacity="1" fill="#4DD0E1" stroke="none" stroke-width="1"/>
<circle cx="356" cy="372" r="4" opacity="1" fill="#4DD0E1" stroke="none" stroke-width="1"/>
<circle cx="331" cy="443" r="4" opacity="1" fill="#4DD0E1" stroke="none" stroke-width="1"/>
<circle cx="551" cy="480" r="4" opacity="1" fill="#4DD0E1" stroke="none" stroke-width="1"/>
<circle cx="634" cy="443" r="4" opacity="1" fill="#4DD0E1" stroke="none" stroke-width="1"/>
<circle cx="476" cy="321" r="4" opacity="1" fill="#4DD0E1" stroke="none" stroke-width="1"/>
<circle cx="507" cy="480" r="4" opacity="1" fill="#4DD0E1" stroke="none" stroke-width="1"/>
<circle cx="443" cy="223" r="4" opacity="1" fill="#FFB74D" stroke="none" stroke-width="1"/>
<circle cx="614" cy="422" r="4" opacity="1" fill="#4DD0E1" stroke="none" stroke-width="1"/>
<circle cx="628" cy="434" r="4" opacity="1" fill="#4DD0E1" stroke="none" stroke-width="1"/>
<circle cx="106" cy="599" r="4" opacity="1" fill="#E57373" stroke="none" stroke-width="1"/>
<circle cx="94" cy="620" r="4" opacity="1" fill="#E57373" stroke="none" stroke-width="1"/>
<circle cx="368" cy="397" r="4" opacity="1" fill="#4DD0E1" stroke="none" stroke-width="1"/>
<circle cx="252" cy="376" r="4" opacity="1" fill="#4DD0E1" stroke="none" stroke-width="1"/>
<circle cx="535" cy="480" r="4" opacity="1" fill="#4DD0E1" stroke="none" stroke-width="1"/>
<circle cx="193" cy="338" r="4" opacity="1" fill="#4DD0E1" stroke="none" stroke-width="1"/>
<circle cx="483" cy="372" r="4" opacity="1" fill="#4DD0E1" stroke="none" stroke-width="1"/>
<circle cx="250" cy="363" r="4" opacity="1" fill="#4DD0E1" stroke="none" stroke-width="1"/>
<circle cx="424" cy="324" r="4" opacity="1" fill="#4DD0E1" stroke="none" stroke-width="1"/>
<circle cx="630" cy="441" r="4" opacity="1" fill="#4DD0E1" stroke="none" stroke-width="1"/>
<circle cx="584" cy="526" r="4" opacity="1" fill="#4DD0E1" stroke="none" stroke-width="1"/>
<circle cx="472" cy="276" r="4" opacity="1" fill="#FFB74D" stroke="none" stroke-width="1"/>
<circle cx="478" cy="340" r="4" opacity="1" fill="#4DD0E1" stroke="none" stroke-width="1"/>
<circle cx="327" cy="461" r="4" opacity="1" fill="#4DD0E1" stroke="none" stroke-width="1"/>
<circle cx="316" cy="480" r="4" opacity="1" fill="#4DD0E1" stroke="none" stroke-width="1"/>
<circle cx="96" cy="620" r="4" opacity="1" fill="#E57373" stroke="none" stroke-width="1"/>
<circle cx="160" cy="574" r="4" opacity="1" fill="#E57373" stroke="none" stroke-width="1"/>
<circle cx="399" cy="301" r="4" opacity="1" fill="#4DD0E1" stroke="none" stroke-width="1"/>
<circle cx="150" cy="587" r="4" opacity="1" fill="#E57373" stroke="none" stroke-width="1"/>
<circle cx="393" cy="308" r="4" opacity="1" fill="#4DD0E1" stroke="none" stroke-width="1"/>
<circle cx="173" cy="546" r="4" opacity="1" fill="#E57373" stroke="none" stroke-width="1"/>
<circle cx="177" cy="491" r="4" opacity="1" fill="#4DD0E1" stroke="none" stroke-width="1"/>
<circle cx="77" cy="606" r="4" opacity="1" fill="#E57373" stroke="none" stroke-width="1"/>
<circle cx="89" cy="620" r="4" opacity="1" fill="#E57373" stroke="none" stroke-width="1"/>
<circle cx="439" cy="287" r="4" opacity="1" fill="#FFB74D" stroke="none" stroke-width="1"/>
<circle cx="349" cy="402" r="4" opacity="1" fill="#4DD0E1" stroke="none" stroke-width="1"/>
<circle cx="408" cy="299" r="4" opacity="1" fill="#FFB74D" stroke="none" stroke-width="1"/>
<circle cx="146" cy="585" r="4" opacity="1" fill="#E57373" stroke="none" stroke-width="1"/>
<circle cx="137" cy="594" r="4" opacity="1" fill="#E57373" stroke="none" stroke-width="1"/>
<circle cx="275" cy="429" r="4" opacity="1" fill="#4DD0E1" stroke="none" stroke-width="1"/>
<circle cx="618" cy="422" r="4" opacity="1" fill="#4DD0E1" stroke="none" stroke-width="1"/>
<circle cx="605" cy="452" r="4" opacity="1" fill="#4DD0E1" stroke="none" stroke-width="1"/>
<circle cx="412" cy="317" r="4" opacity="1" fill="#4DD0E1" stroke="none" stroke-width="1"/>
<circle cx="335" cy="441" r="4" opacity="1" fill="#4DD0E1" stroke="none" stroke-width="1"/>
<circle cx="337" cy="436" r="4" opacity="1" fill="#4DD0E1" stroke="none" stroke-width="1"/>
<circle cx="505" cy="491" r="4" opacity="1" fill="#4DD0E1" stroke="none" stroke-width="1"/>
<circle cx="306" cy="461" r="4" opacity="1" fill="#4DD0E1" stroke="none" stroke-width="1"/>
<circle cx="64" cy="569" r="4" opacity="1" fill="#E57373" stroke="none" stroke-width="1"/>
<circle cx="98" cy="620" r="4" opacity="1" fill="#E57373" stroke="none" stroke-width="1"/>
<circle cx="123" cy="606" r="4" opacity="1" fill="#E57373" stroke="none" stroke-width="1"/>
<circle cx="553" cy="493" r="4" opacity="1" fill="#4DD0E1" stroke="none" stroke-width="1"/>
<circle cx="376" cy="388" r="4" opacity="1" fill="#4DD0E1" stroke="none" stroke-width="1"/>
<circle cx="187" cy="376" r="4" opacity="1" fill="#4DD0E1" stroke="none" stroke-width="1"/>
<circle cx="555" cy="496" r="4" opacity="1" fill="#4DD0E1" stroke="none" stroke-width="1"/>
<circle cx="401" cy="292" r="4" opacity="1" fill="#FFB74D" stroke="none" stroke-width="1"/>
<circle cx="46" cy="470" r="4" opacity="1" fill="#4DD0E1" stroke="none" stroke-width="1"/>
<circle cx="624" cy="427" r="4" opacity="1" fill="#4DD0E1" stroke="none" stroke-width="1"/>
<circle cx="516" cy="438" r="4" opacity="1" fill="#4DD0E1" stroke="none" stroke-width="1"/>
<circle cx="104" cy="601" r="4" opacity="1" fill="#E57373" stroke="none" stroke-width="1"/>
<circle cx="347" cy="415" r="4" opacity="1" fill="#4DD0E1" stroke="none" stroke-width="1"/>
<circle cx="44" cy="450" r="4" opacity="1" fill="#4DD0E1" stroke="none" stroke-width="1"/>
<circle cx="426" cy="321" r="4" opacity="1" fill="#4DD0E1" stroke="none" stroke-width="1"/>
<circle cx="129" cy="601" r="4" opacity="1" fill="#E57373" stroke="none" stroke-width="1"/>
<circle cx="445" cy="198" r="4" opacity="1" fill="#FFB74D" stroke="none" stroke-width="1"/>
<circle cx="71" cy="585" r="4" opacity="1" fill="#E57373" stroke="none" stroke-width="1"/>
<circle cx="360" cy="388" r="4" opacity="1" fill="#4DD0E1" stroke="none" stroke-width="1"/>
<circle cx="474" cy="299" r="4" opacity="1" fill="#FFB74D" stroke="none" stroke-width="1"/>
<circle cx="428" cy="315" r="4" opacity="1" fill="#4DD0E1" stroke="none" stroke-width="1"/>
<circle cx="503" cy="507" r="4" opacity="1" fill="#4DD0E1" stroke="none" stroke-width="1"/>
<circle cx="297" cy="450" r="4" opacity="1" fill="#4DD0E1" stroke="none" stroke-width="1"/>
<circle cx="237" cy="367" r="4" opacity="1" fill="#4DD0E1" stroke="none" stroke-width="1"/>
<circle cx="312" cy="480" r="4" opacity="1" fill="#4DD0E1" stroke="none" stroke-width="1"/>
<circle cx="381" cy="390" r="4" opacity="1" fill="#4DD0E1" stroke="none" stroke-width="1"/>
<circle cx="214" cy="342" r="4" opacity="1" fill="#4DD0E1" stroke="none" stroke-width="1"/>
<circle cx="626" cy="432" r="4" opacity="1" fill="#4DD0E1" stroke="none" stroke-width="1"/>
<circle cx="636" cy="450" r="4" opacity="1" fill="#4DD0E1" stroke="none" stroke-width="1"/>
<circle cx="345" cy="432" r="4" opacity="1" fill="#4DD0E1" stroke="none" stroke-width="1"/>
<circle cx="593" cy="470" r="4" opacity="1" fill="#4DD0E1" stroke="none" stroke-width="1"/>
<circle cx="227" cy="333" r="4" opacity="1" fill="#4DD0E1" stroke="none" stroke-width="1"/>
<circle cx="112" cy="613" r="4" opacity="1" fill="#E57373" stroke="none" stroke-width="1"/>
<circle cx="343" cy="438" r="4" opacity="1" fill="#4DD0E1" stroke="none" stroke-width="1"/>
<circle cx="485" cy="390" r="4" opacity="1" fill="#4DD0E1" stroke="none" stroke-width="1"/>
<circle cx="239" cy="363" r="4" opacity="1" fill="#4DD0E1" stroke="none" stroke-width="1"/>
<circle cx="403" cy="287" r="4" opacity="1" fill="#FFB74D" stroke="none" stroke-width="1"/>
<circle cx="189" cy="360" r="4" opacity="1" fill="#4DD0E1" stroke="none" stroke-width="1"/>
<circle cx="220" cy="347" r="4" opacity="1" fill="#4DD0E1" stroke="none" stroke-width="1"/>
<circle cx="218" cy="344" r="4" opacity="1" fill="#4DD0E1" stroke="none" stroke-width="1"/>
<circle cx="497" cy="530" r="4" opacity="1" fill="#E57373" stroke="none" stroke-width="1"/>
<circle cx="512" cy="434" r="4" opacity="1" fill="#4DD0E1" stroke="none" stroke-width="1"/>
<circle cx="281" cy="448" r="4" opacity="1" fill="#4DD0E1" stroke="none" stroke-width="1"/>
<circle cx="83" cy="620" r="4" opacity="1" fill="#E57373" stroke="none" stroke-width="1"/>
<circle cx="370" cy="390" r="4" opacity="1" fill="#4DD0E1" stroke="none" stroke-width="1"/>
<circle cx="191" cy="344" r="4" opacity="1" fill="#4DD0E1" stroke="none" stroke-width="1"/>
<circle cx="154" cy="585" r="4" opacity="1" fill="#E57373" stroke="none" stroke-width="1"/>
<circle cx="358" cy="381" r="4" opacity="1" fill="#4DD0E1" stroke="none" stroke-width="1"/>
<circle cx="52" cy="514" r="4" opacity="1" fill="#4DD0E1" stroke="none" stroke-width="1"/>
<circle cx="420" cy="331" r="4" opacity="1" fill="#4DD0E1" stroke="none" stroke-width="1"/>
<circle cx="549" cy="468" r="4" opacity="1" fill="#4DD0E1" stroke="none" stroke-width="1"/>
<circle cx="545" cy="480" r="4" opacity="1" fill="#4DD0E1" stroke="none" stroke-width="1"/>
<circle cx="127" cy="603" r="4" opacity="1" fill="#E57373" stroke="none" stroke-width="1"/>
<circle cx="293" cy="464" r="4" opacity="1" fill="#4DD0E1" stroke="none" stroke-width="1"/>
<circle cx="435" cy="303" r="4" opacity="1" fill="#4DD0E1" stroke="none" stroke-width="1"/>
<circle cx="264" cy="402" r="4" opacity="1" fill="#4DD0E1" stroke="none" stroke-width="1"/>
<circle cx="501" cy="521" r="4" opacity="1" fill="#4DD0E1" stroke="none" stroke-width="1"/>
<circle cx="79" cy="606" r="4" opacity="1" fill="#E57373" stroke="none" stroke-width="1"/>
<circle cx="208" cy="338" r="4" opacity="1" fill="#4DD0E1" stroke="none" stroke-width="1"/>
<circle cx="524" cy="482" r="4" opacity="1" fill="#4DD0E1" stroke="none" stroke-width="1"/>
<circle cx="470" cy="253" r="4" opacity="1" fill="#FFB74D" stroke="none" stroke-width="1"/>
<circle cx="557" cy="500" r="4" opacity="1" fill="#4DD0E1" stroke="none" stroke-width="1"/>
<circle cx="119" cy="608" r="4" opacity="1" fill="#E57373" stroke="none" stroke-width="1"/>
<circle cx="514" cy="427" r="4" opacity="1" fill="#4DD0E1" stroke="none" stroke-width="1"/>
<circle cx="185" cy="402" r="4" opacity="1" fill="#4DD0E1" stroke="none" stroke-width="1"/>
<circle cx="279" cy="438" r="4" opacity="1" fill="#4DD0E1" stroke="none" stroke-width="1"/>
<circle cx="616" cy="425" r="4" opacity="1" fill="#4DD0E1" stroke="none" stroke-width="1"/>
<circle cx="431" cy="312" r="4" opacity="1" fill="#4DD0E1" stroke="none" stroke-width="1"/>
<circle cx="379" cy="393" r="4" opacity="1" fill="#4DD0E1" stroke="none" stroke-width="1"/>
<circle cx="580" cy="519" r="4" opacity="1" fill="#4DD0E1" stroke="none" stroke-width="1"/>
<circle cx="532" cy="482" r="4" opacity="1" fill="#4DD0E1" stroke="none" stroke-width="1"/>
<circle cx="262" cy="393" r="4" opacity="1" fill="#4DD0E1" stroke="none" stroke-width="1"/>
<circle cx="168" cy="571" r="4" opacity="1" fill="#E57373" stroke="none" stroke-width="1"/>
<circle cx="67" cy="571" r="4" opacity="1" fill="#E57373" stroke="none" stroke-width="1"/>
<circle cx="582" cy="523" r="4" opacity="1" fill="#4DD0E1" stroke="none" stroke-width="1"/>
<circle cx="564" cy="498" r="4" opacity="1" fill="#4DD0E1" stroke="none" stroke-width="1"/>
<circle cx="285" cy="484" r="4" opacity="1" fill="#4DD0E1" stroke="none" stroke-width="1"/>
<circle cx="395" cy="299" r="4" opacity="1" fill="#FFB74D" stroke="none" stroke-width="1"/>
<circle cx="210" cy="335" r="4" opacity="1" fill="#4DD0E1" stroke="none" stroke-width="1"/>
<circle cx="576" cy="509" r="4" opacity="1" fill="#4DD0E1" stroke="none" stroke-width="1"/>
<circle cx="372" cy="372" r="4" opacity="1" fill="#4DD0E1" stroke="none" stroke-width="1"/>
<circle cx="108" cy="599" r="4" opacity="1" fill="#E57373" stroke="none" stroke-width="1"/>
<circle cx="148" cy="587" r="4" opacity="1" fill="#E57373" stroke="none" stroke-width="1"/>
<circle cx="451" cy="170" r="4" opacity="1" fill="#FFB74D" stroke="none" stroke-width="1"/>
<circle cx="254" cy="381" r="4" opacity="1" fill="#4DD0E1" stroke="none" stroke-width="1"/>
<circle cx="320" cy="473" r="4" opacity="1" fill="#4DD0E1" stroke="none" stroke-width="1"/>
<circle cx="256" cy="381" r="4" opacity="1" fill="#4DD0E1" stroke="none" stroke-width="1"/>
<circle cx="235" cy="386" r="4" opacity="1" fill="#4DD0E1" stroke="none" stroke-width="1"/>
<circle cx="277" cy="441" r="4" opacity="1" fill="#4DD0E1" stroke="none" stroke-width="1"/>
<circle cx="547" cy="470" r="4" opacity="1" fill="#4DD0E1" stroke="none" stroke-width="1"/>
<circle cx="526" cy="491" r="4" opacity="1" fill="#4DD0E1" stroke="none" stroke-width="1"/>
<circle cx="198" cy="331" r="4" opacity="1" fill="#4DD0E1" stroke="none" stroke-width="1"/>
<circle cx="241" cy="358" r="4" opacity="1" fill="#4DD0E1" stroke="none" stroke-width="1"/>
<circle cx="324" cy="464" r="4" opacity="1" fill="#4DD0E1" stroke="none" stroke-width="1"/>
<circle cx="599" cy="441" r="4" opacity="1" fill="#4DD0E1" stroke="none" stroke-width="1"/>
<circle cx="522" cy="470" r="4" opacity="1" fill="#4DD0E1" stroke="none" stroke-width="1"/>
<circle cx="387" cy="312" r="4" opacity="1" fill="#4DD0E1" stroke="none" stroke-width="1"/>
<circle cx="131" cy="599" r="4" opacity="1" fill="#E57373" stroke="none" stroke-width="1"/>
<circle cx="495" cy="507" r="4" opacity="1" fill="#4DD0E1" stroke="none" stroke-width="1"/>
<circle cx="362" cy="386" r="4" opacity="1" fill="#4DD0E1" stroke="none" stroke-width="1"/>
<circle cx="597" cy="448" r="4" opacity="1" fill="#4DD0E1" stroke="none" stroke-width="1"/>
<circle cx="333" cy="443" r="4" opacity="1" fill="#4DD0E1" stroke="none" stroke-width="1"/>
<circle cx="620" cy="420" r="4" opacity="1" fill="#4DD0E1" stroke="none" stroke-width="1"/>
</svg>
